# xmcd
# Track frame offsets:
# 150
# 11400
# 27525
# 36525
# 56050
# 67175
# 83625
# 99675
# 111662
# 121250
# 139025
# 150087
# 161325
# 177225
# 195300
#
# Disc length: 2808 seconds
# Revision: 0
# Processed by: cddbd v1.4PL0 Copyright (c) Steve Scherf et al.
# Submitted via: VisiTrax 2.9.5.181 - For more info visit www.synapsa.com
#
DISCID=c60af60f
DTITLE=Marc Breitfelder and Jack Cook - Feed my body to the fishes but my sou
DTITLE=l to the lord above
DYEAR=2000
DGENRE=Blues
TTITLE0=About to lose my´mind
TTITLE1=Put all in there
TTITLE2=Right string but the wrong yo yo
TTITLE3=Outside man
TTITLE4=Chicken ain´t nothin but a bird
TTITLE5=saturday blues
TTITLE6=Goin´to Brownsville
TTITLE7=Goal man
TTITLE8=Shake that thing
TTITLE9=Just give me a chance
TTITLE10=Supermarket prices
TTITLE11=Mama Didn´t Raise No Crazy Kids
TTITLE12=Let me be your hatchet
TTITLE13=Work song
TTITLE14=Feed my body to the fishes
EXTD=
EXTT0=
EXTT1=
EXTT2=
EXTT3=
EXTT4=
EXTT5=
EXTT6=
EXTT7=
EXTT8=
EXTT9=
EXTT10=
EXTT11=
EXTT12=
EXTT13=
EXTT14=
PLAYORDER=
